<mxfile host="Electron" agent="Mozilla/5.0 (Windows NT 10.0; Win64; x64) AppleWebKit/537.36 (KHTML, like Gecko) draw.io/26.1.1 Chrome/132.0.6834.210 Electron/34.3.3 Safari/537.36" version="26.1.1">
  <diagram name="PÃ¡gina-1" id="D17C5iBNhWLtvUi4aKqS">
    <mxGraphModel dx="1434" dy="836" grid="1" gridSize="10" guides="1" tooltips="1" connect="1" arrows="1" fold="1" page="1" pageScale="1" pageWidth="827" pageHeight="1169" math="0" shadow="0">
      <root>
        <mxCell id="0" />
        <mxCell id="1" parent="0" />
        <mxCell id="UJdAEZgNhqXL31GI8Idm-6" style="edgeStyle=orthogonalEdgeStyle;rounded=0;orthogonalLoop=1;jettySize=auto;html=1;entryX=0;entryY=0.5;entryDx=0;entryDy=0;" parent="1" source="UJdAEZgNhqXL31GI8Idm-2" target="UJdAEZgNhqXL31GI8Idm-5" edge="1">
          <mxGeometry relative="1" as="geometry" />
        </mxCell>
        <mxCell id="UJdAEZgNhqXL31GI8Idm-2" value="Utilizador" style="shape=umlActor;verticalLabelPosition=bottom;verticalAlign=top;html=1;outlineConnect=0;" parent="1" vertex="1">
          <mxGeometry x="40" y="137.5" width="50" height="100" as="geometry" />
        </mxCell>
        <mxCell id="UJdAEZgNhqXL31GI8Idm-5" value="App" style="swimlane;whiteSpace=wrap;html=1;" parent="1" vertex="1">
          <mxGeometry x="160" y="120" width="170" height="135" as="geometry">
            <mxRectangle x="140" y="120" width="130" height="30" as="alternateBounds" />
          </mxGeometry>
        </mxCell>
        <mxCell id="jw7Sf-fXYtuoee-Om0cI-9" style="edgeStyle=orthogonalEdgeStyle;rounded=0;orthogonalLoop=1;jettySize=auto;html=1;exitX=1;exitY=0.25;exitDx=0;exitDy=0;entryX=0;entryY=0.25;entryDx=0;entryDy=0;" parent="UJdAEZgNhqXL31GI8Idm-5" source="jw7Sf-fXYtuoee-Om0cI-7" target="jw7Sf-fXYtuoee-Om0cI-8" edge="1">
          <mxGeometry relative="1" as="geometry" />
        </mxCell>
        <mxCell id="jw7Sf-fXYtuoee-Om0cI-7" value="UI" style="rounded=0;whiteSpace=wrap;html=1;" parent="UJdAEZgNhqXL31GI8Idm-5" vertex="1">
          <mxGeometry x="20" y="40" width="50" height="80" as="geometry" />
        </mxCell>
        <mxCell id="jw7Sf-fXYtuoee-Om0cI-12" style="edgeStyle=orthogonalEdgeStyle;rounded=0;orthogonalLoop=1;jettySize=auto;html=1;exitX=0;exitY=0.75;exitDx=0;exitDy=0;" parent="UJdAEZgNhqXL31GI8Idm-5" source="jw7Sf-fXYtuoee-Om0cI-8" edge="1">
          <mxGeometry relative="1" as="geometry">
            <mxPoint x="70" y="100" as="targetPoint" />
          </mxGeometry>
        </mxCell>
        <mxCell id="jw7Sf-fXYtuoee-Om0cI-8" value="Flask Backend" style="rounded=0;whiteSpace=wrap;html=1;" parent="UJdAEZgNhqXL31GI8Idm-5" vertex="1">
          <mxGeometry x="100" y="40" width="50" height="80" as="geometry" />
        </mxCell>
        <mxCell id="UJdAEZgNhqXL31GI8Idm-13" value="HTTP" style="text;html=1;align=center;verticalAlign=middle;whiteSpace=wrap;rounded=0;" parent="1" vertex="1">
          <mxGeometry x="70" y="190" width="60" height="30" as="geometry" />
        </mxCell>
        <mxCell id="beS_k4wiMkPXSPPTJepD-2" style="edgeStyle=orthogonalEdgeStyle;rounded=0;orthogonalLoop=1;jettySize=auto;html=1;" edge="1" parent="1" source="jw7Sf-fXYtuoee-Om0cI-13" target="beS_k4wiMkPXSPPTJepD-1">
          <mxGeometry relative="1" as="geometry">
            <Array as="points">
              <mxPoint x="690" y="220" />
              <mxPoint x="690" y="220" />
            </Array>
          </mxGeometry>
        </mxCell>
        <mxCell id="beS_k4wiMkPXSPPTJepD-5" value="HTTP" style="edgeLabel;html=1;align=center;verticalAlign=middle;resizable=0;points=[];" vertex="1" connectable="0" parent="beS_k4wiMkPXSPPTJepD-2">
          <mxGeometry x="0.2435" relative="1" as="geometry">
            <mxPoint x="-22" as="offset" />
          </mxGeometry>
        </mxCell>
        <mxCell id="jw7Sf-fXYtuoee-Om0cI-13" value="API Swagger" style="swimlane;whiteSpace=wrap;html=1;" parent="1" vertex="1">
          <mxGeometry x="420" y="120" width="170" height="135" as="geometry">
            <mxRectangle x="140" y="120" width="130" height="30" as="alternateBounds" />
          </mxGeometry>
        </mxCell>
        <mxCell id="jw7Sf-fXYtuoee-Om0cI-17" value="Flask" style="rounded=0;whiteSpace=wrap;html=1;" parent="jw7Sf-fXYtuoee-Om0cI-13" vertex="1">
          <mxGeometry x="20" y="40" width="130" height="80" as="geometry" />
        </mxCell>
        <mxCell id="jw7Sf-fXYtuoee-Om0cI-18" value="" style="shape=flexArrow;endArrow=classic;startArrow=classic;html=1;rounded=0;entryX=0;entryY=0.5;entryDx=0;entryDy=0;exitX=1;exitY=0.5;exitDx=0;exitDy=0;" parent="1" source="UJdAEZgNhqXL31GI8Idm-5" target="jw7Sf-fXYtuoee-Om0cI-13" edge="1">
          <mxGeometry width="100" height="100" relative="1" as="geometry">
            <mxPoint x="240" y="330" as="sourcePoint" />
            <mxPoint x="340" y="230" as="targetPoint" />
          </mxGeometry>
        </mxCell>
        <mxCell id="jw7Sf-fXYtuoee-Om0cI-19" value="Contentor Postgres Users" style="swimlane;whiteSpace=wrap;html=1;" parent="1" vertex="1">
          <mxGeometry x="310" y="360" width="170" height="135" as="geometry">
            <mxRectangle x="140" y="120" width="130" height="30" as="alternateBounds" />
          </mxGeometry>
        </mxCell>
        <mxCell id="UJdAEZgNhqXL31GI8Idm-8" value="Postgres Users" style="shape=cylinder3;whiteSpace=wrap;html=1;boundedLbl=1;backgroundOutline=1;size=7;" parent="jw7Sf-fXYtuoee-Om0cI-19" vertex="1">
          <mxGeometry x="45" y="45" width="80" height="78" as="geometry" />
        </mxCell>
        <mxCell id="jw7Sf-fXYtuoee-Om0cI-24" value="Contentor Postgres Stations" style="swimlane;whiteSpace=wrap;html=1;" parent="1" vertex="1">
          <mxGeometry x="520" y="360" width="170" height="135" as="geometry">
            <mxRectangle x="140" y="120" width="130" height="30" as="alternateBounds" />
          </mxGeometry>
        </mxCell>
        <mxCell id="jw7Sf-fXYtuoee-Om0cI-25" value="Postgres Stations" style="shape=cylinder3;whiteSpace=wrap;html=1;boundedLbl=1;backgroundOutline=1;size=7;" parent="jw7Sf-fXYtuoee-Om0cI-24" vertex="1">
          <mxGeometry x="45" y="45" width="80" height="78" as="geometry" />
        </mxCell>
        <mxCell id="jw7Sf-fXYtuoee-Om0cI-26" value="" style="shape=flexArrow;endArrow=classic;startArrow=classic;html=1;rounded=0;entryX=0.25;entryY=1;entryDx=0;entryDy=0;exitX=0.5;exitY=0;exitDx=0;exitDy=0;" parent="1" source="jw7Sf-fXYtuoee-Om0cI-19" target="jw7Sf-fXYtuoee-Om0cI-13" edge="1">
          <mxGeometry width="100" height="100" relative="1" as="geometry">
            <mxPoint x="340" y="198" as="sourcePoint" />
            <mxPoint x="430" y="198" as="targetPoint" />
            <Array as="points">
              <mxPoint x="395" y="320" />
              <mxPoint x="463" y="320" />
            </Array>
          </mxGeometry>
        </mxCell>
        <mxCell id="jw7Sf-fXYtuoee-Om0cI-27" value="SQL" style="edgeLabel;html=1;align=center;verticalAlign=middle;resizable=0;points=[];" parent="jw7Sf-fXYtuoee-Om0cI-26" vertex="1" connectable="0">
          <mxGeometry x="-0.0405" relative="1" as="geometry">
            <mxPoint x="22" y="-20" as="offset" />
          </mxGeometry>
        </mxCell>
        <mxCell id="jw7Sf-fXYtuoee-Om0cI-28" value="" style="shape=flexArrow;endArrow=classic;startArrow=classic;html=1;rounded=0;entryX=0.75;entryY=1;entryDx=0;entryDy=0;exitX=0.5;exitY=0;exitDx=0;exitDy=0;" parent="1" source="jw7Sf-fXYtuoee-Om0cI-24" target="jw7Sf-fXYtuoee-Om0cI-13" edge="1">
          <mxGeometry width="100" height="100" relative="1" as="geometry">
            <mxPoint x="405" y="370" as="sourcePoint" />
            <mxPoint x="473" y="265" as="targetPoint" />
            <Array as="points">
              <mxPoint x="605" y="320" />
              <mxPoint x="548" y="320" />
            </Array>
          </mxGeometry>
        </mxCell>
        <mxCell id="jw7Sf-fXYtuoee-Om0cI-29" value="SQL" style="edgeLabel;html=1;align=center;verticalAlign=middle;resizable=0;points=[];" parent="jw7Sf-fXYtuoee-Om0cI-28" vertex="1" connectable="0">
          <mxGeometry x="-0.0405" relative="1" as="geometry">
            <mxPoint x="-24" y="-20" as="offset" />
          </mxGeometry>
        </mxCell>
        <mxCell id="beS_k4wiMkPXSPPTJepD-3" style="edgeStyle=orthogonalEdgeStyle;rounded=0;orthogonalLoop=1;jettySize=auto;html=1;exitX=0.25;exitY=0.25;exitDx=0;exitDy=0;exitPerimeter=0;" edge="1" parent="1" source="beS_k4wiMkPXSPPTJepD-1">
          <mxGeometry relative="1" as="geometry">
            <mxPoint x="590" y="160" as="targetPoint" />
            <Array as="points">
              <mxPoint x="750" y="160" />
            </Array>
          </mxGeometry>
        </mxCell>
        <mxCell id="beS_k4wiMkPXSPPTJepD-4" value="JSON" style="edgeLabel;html=1;align=center;verticalAlign=middle;resizable=0;points=[];" vertex="1" connectable="0" parent="beS_k4wiMkPXSPPTJepD-3">
          <mxGeometry x="0.1143" y="1" relative="1" as="geometry">
            <mxPoint as="offset" />
          </mxGeometry>
        </mxCell>
        <mxCell id="beS_k4wiMkPXSPPTJepD-1" value="IOT Rest Service" style="ellipse;shape=cloud;whiteSpace=wrap;html=1;" vertex="1" parent="1">
          <mxGeometry x="710" y="115.5" width="160" height="122" as="geometry" />
        </mxCell>
      </root>
    </mxGraphModel>
  </diagram>
</mxfile>
